<svg width="476" height="329" viewBox="0 0 476 329" fill="none" xmlns="http://www.w3.org/2000/svg">
<path d="M468 164.443C472 164.443 474.8 161.243 475.2 157.643V70.4433C475.2 66.4433 472 63.6433 468 63.2433H448.8L440.4 6.0433C440 2.0433 436.4 -0.356695 432.4 0.0433048L324 16.0433H323.6L6.79999 63.6433C6.79999 63.6433 0.799994 64.8433 0.799994 70.4433V157.243C0.799994 161.243 3.99999 164.043 7.59999 164.443C25.2 164.443 39.2 178.443 39.2 196.043C39.2 213.643 25.2 227.643 7.59999 227.643C3.59999 227.643 0.799994 230.843 0.399994 234.443V321.243C0.399994 325.243 3.59999 328.043 7.59999 328.443H467.6C471.6 328.443 474.4 325.243 474.8 321.243V234.843C474.8 230.843 471.6 228.043 468 227.643C450.4 227.643 436.4 213.643 436.4 196.043C436.4 178.443 450.4 164.443 468 164.443V164.443ZM318.8 31.2433L321.6 50.0433C322 53.6433 325.2 56.0433 328.4 56.0433H329.6C333.6 55.6433 336 52.0433 335.6 48.0433L332.8 29.2433L427.6 15.2433L434.8 63.6433H102.4L318.8 31.2433ZM461.2 241.243V314.843H357.6V295.643C357.6 291.643 354.4 288.443 350.4 288.443C346.4 288.443 343.2 291.643 343.2 295.643V314.843H15.2V241.243C40 237.243 57.2 214.043 53.2 189.243C50 169.643 34.8 154.043 15.2 151.243V77.6433H343.6V96.4433C343.6 100.443 346.8 103.643 350.8 103.643C354.8 103.643 358 100.443 358 96.4433V77.2433H461.6V150.843C436.8 154.843 419.6 178.043 423.6 202.843C426 222.843 441.2 238.043 461.2 241.243V241.243Z" fill="#7957D5"/>
<path d="M350.4 206.4C346.4 206.4 343.6 209.6 343.2 213.2V259.6C343.2 263.6 346.4 266.8 350.4 266.8C354.4 266.8 357.6 263.6 357.6 259.6V213.6C357.6 209.6 354.4 206.4 350.4 206.4Z" fill="#7957D5"/>
<path d="M350.4 124.8C346.4 124.8 343.6 128 343.2 131.6V178C343.2 182 346.4 185.2 350.4 185.2C354.4 185.2 357.6 182 357.6 178V131.6C357.6 128 354.4 124.8 350.4 124.8V124.8Z" fill="#7957D5"/>
<path d="M175.322 174L154.082 237H147.062L128.612 183.27L110.072 237H103.142L81.9023 174H88.7423L106.922 228.18L125.732 174H131.942L150.482 228.45L168.932 174H175.322ZM230.318 220.44H217.718V237H211.238V220.44H175.688V215.76L209.078 174H216.278L184.058 214.68H211.418V200.1H217.718V214.68H230.318V220.44ZM241.85 174H248.51V237H241.85V174ZM281.248 179.76H259.108V174H310.048V179.76H287.908V237H281.248V179.76Z" fill="#7957D5"/>
</svg>
