<svg width="475" height="329" viewBox="0 0 475 329" fill="none" xmlns="http://www.w3.org/2000/svg">
<path d="M467.6 164.443C471.6 164.443 474.4 161.243 474.8 157.643V70.4433C474.8 66.4433 471.6 63.6433 467.6 63.2433H448.4L440 6.0433C439.6 2.0433 436 -0.356695 432 0.0433048L323.6 16.0433H323.2L6.4 63.6433C6.4 63.6433 0.4 64.8433 0.4 70.4433V157.243C0.4 161.243 3.6 164.043 7.2 164.443C24.8 164.443 38.8 178.443 38.8 196.043C38.8 213.643 24.8 227.643 7.2 227.643C3.2 227.643 0.4 230.843 0 234.443V321.243C0 325.243 3.2 328.043 7.2 328.443H467.2C471.2 328.443 474 325.243 474.4 321.243V234.843C474.4 230.843 471.2 228.043 467.6 227.643C450 227.643 436 213.643 436 196.043C436 178.443 450 164.443 467.6 164.443V164.443ZM318.4 31.2433L321.2 50.0433C321.6 53.6433 324.8 56.0433 328 56.0433H329.2C333.2 55.6433 335.6 52.0433 335.2 48.0433L332.4 29.2433L427.2 15.2433L434.4 63.6433H102L318.4 31.2433ZM460.8 241.243V314.843H357.2V295.643C357.2 291.643 354 288.443 350 288.443C346 288.443 342.8 291.643 342.8 295.643V314.843H14.8V241.243C39.6 237.243 56.8 214.043 52.8 189.243C49.6 169.643 34.4 154.043 14.8 151.243V77.6433H343.2V96.4433C343.2 100.443 346.4 103.643 350.4 103.643C354.4 103.643 357.6 100.443 357.6 96.4433V77.2433H461.2V150.843C436.4 154.843 419.2 178.043 423.2 202.843C425.6 222.843 440.8 238.043 460.8 241.243V241.243Z" fill="white"/>
<path d="M350 206.4C346 206.4 343.2 209.6 342.8 213.2V259.6C342.8 263.6 346 266.8 350 266.8C354 266.8 357.2 263.6 357.2 259.6V213.6C357.2 209.6 354 206.4 350 206.4Z" fill="white"/>
<path d="M350 124.8C346 124.8 343.2 128 342.8 131.6V178C342.8 182 346 185.2 350 185.2C354 185.2 357.2 182 357.2 178V131.6C357.2 128 354 124.8 350 124.8V124.8Z" fill="white"/>
<path d="M174.922 174L153.682 237H146.662L128.212 183.27L109.672 237H102.742L81.5023 174H88.3423L106.522 228.18L125.332 174H131.542L150.082 228.45L168.532 174H174.922ZM229.918 220.44H217.318V237H210.838V220.44H175.288V215.76L208.678 174H215.878L183.658 214.68H211.018V200.1H217.318V214.68H229.918V220.44ZM241.45 174H248.11V237H241.45V174ZM280.848 179.76H258.708V174H309.648V179.76H287.508V237H280.848V179.76Z" fill="white"/>
</svg>
